<svg width="204" height="12" viewBox="0 0 204 12" fill="none" xmlns="http://www.w3.org/2000/svg">
<path d="M176.697 9.77779C177.837 9.66057 180.192 9.12806 182.439 8.801C186.804 8.1655 191.35 8.47554 195.646 7.38461C200.671 6.10866 174.996 5.68235 169.322 5.66883C162.599 5.65531 154.721 5.68086 144.518 5.623C125.047 5.51781 98.5363 5.45544 72.2248 5.98592C64.4473 6.14897 56.6651 6.29023 48.9175 6.54722C46.0075 6.6464 43.0925 6.74709 40.1824 6.84627C35.0775 7.02736 29.9761 7.2092 24.87 7.37076C20.5461 7.50751 15.2204 8.2003 10.5619 8.14394C5.24994 8.07932 1.54946 6.90864 0.395847 4.659C-0.0320524 3.84148 -0.309505 2.64445 0.629855 1.94792C1.57423 1.24913 2.09909 1.05 2.67239 0.862162C4.05639 0.420337 5.76632 0.0769585 6.58031 0.064186C17.811 -0.0793297 30.3454 0.0454002 40.3994 0.169381C48.2903 0.270069 56.1983 0.364738 66.5932 0.369258C79.049 0.456419 116.349 0.756974 128.801 0.762995C137.055 0.767504 145.29 1.07558 153.501 1.47382C160.332 1.80444 167.239 2.15383 174.261 2.54605C181.052 2.91949 185.087 2.94428 191.954 3.37409C193.023 3.43645 194.284 3.49882 195.646 3.57397C196.781 3.62281 198.252 3.71072 199.36 3.74303C200.473 3.76708 202.82 3.98757 203.697 6C204.774 8.46737 202.819 9.83567 200.355 10.7448C199.144 11.1919 197.858 11.1994 197.136 11.2557C194.365 11.53 191.769 11.6156 189.815 11.4796C188.5 11.3872 184.557 11.6675 181.107 11.8734C178.559 12.0349 177.113 12.0597 173.162 11.8426C171.083 11.5999 171.029 10.8815 173.453 10.2782C174.534 10.0588 175.773 9.87171 176.697 9.77779Z" fill="#FFBC11"/>
</svg>
